<?xml version="1.0" encoding="UTF-8" standalone="no"?>
<!DOCTYPE svg PUBLIC "-//W3C//DTD SVG 1.1//EN" "http://www.w3.org/Graphics/SVG/1.1/DTD/svg11.dtd">
<svg width="100%" height="100%" viewBox="0 0 1200 1200" version="1.1" xmlns="http://www.w3.org/2000/svg" xmlns:xlink="http://www.w3.org/1999/xlink" xml:space="preserve" xmlns:serif="http://www.serif.com/" style="fill-rule:evenodd;clip-rule:evenodd;stroke-linejoin:round;stroke-miterlimit:2;">
    <g transform="matrix(1.26153,0,0,1.34321,-98.0756,-141.394)">
        <rect x="77.743" y="105.266" width="951.227" height="893.383"/>
    </g>
    <g transform="matrix(1,0,0,1,90.2235,-13.906)">
        <path d="M533.456,842.386C504.87,842.386 482.896,837.479 467.536,827.666C452.176,817.853 440.87,806.973 433.616,795.026L422.096,795.026L422.096,833.426L342.736,833.426L342.736,385.426L423.376,385.426L423.376,552.466L434.896,552.466C439.59,544.786 445.883,537.533 453.776,530.706C461.67,523.879 472.123,518.226 485.136,513.746C498.15,509.266 514.256,507.026 533.456,507.026C559.056,507.026 582.736,513.319 604.496,525.906C626.256,538.493 643.75,556.946 656.976,581.266C670.203,605.586 676.816,635.026 676.816,669.586L676.816,679.826C676.816,714.386 670.203,743.826 656.976,768.146C643.75,792.466 626.256,810.919 604.496,823.506C582.736,836.093 559.056,842.386 533.456,842.386ZM509.136,771.986C533.883,771.986 554.576,763.986 571.216,747.986C587.856,731.986 596.176,708.626 596.176,677.906L596.176,671.506C596.176,640.786 587.963,617.426 571.536,601.426C555.11,585.426 534.31,577.426 509.136,577.426C484.39,577.426 463.696,585.426 447.056,601.426C430.416,617.426 422.096,640.786 422.096,671.506L422.096,677.906C422.096,708.626 430.416,731.986 447.056,747.986C463.696,763.986 484.39,771.986 509.136,771.986Z" style="fill:white;fill-rule:nonzero;"/>
    </g>
</svg>
