<?xml version="1.0" encoding="UTF-8" standalone="no"?>
<!DOCTYPE svg PUBLIC "-//W3C//DTD SVG 1.1//EN" "http://www.w3.org/Graphics/SVG/1.1/DTD/svg11.dtd">
<svg width="100%" height="100%" viewBox="0 0 60 66" version="1.1" xmlns="http://www.w3.org/2000/svg" xmlns:xlink="http://www.w3.org/1999/xlink" xml:space="preserve" xmlns:serif="http://www.serif.com/" style="fill-rule:evenodd;clip-rule:evenodd;stroke-linejoin:round;stroke-miterlimit:2;">
    <g transform="matrix(0.052206,0,0,0.052206,-6.02791e-14,-6.71136e-16)">
        <g transform="matrix(4.16667,0,0,4.16667,574.646,953.791)">
            <path d="M0,71.09C19.631,71.09 35.545,55.176 35.545,35.545C35.545,15.914 19.631,0 0,0C-19.631,0 -35.545,15.914 -35.545,35.545C-35.545,55.176 -19.631,71.09 0,71.09" style="fill:rgb(255,120,175);fill-rule:nonzero;"/>
        </g>
        <g transform="matrix(4.16667,0,0,4.16667,1001.19,953.791)">
            <path d="M0,71.09C19.631,71.09 35.545,55.176 35.545,35.545C35.545,15.914 19.631,0 0,0C-19.632,0 -35.546,15.914 -35.546,35.545C-35.546,55.176 -19.632,71.09 0,71.09" style="fill:rgb(255,192,107);fill-rule:nonzero;"/>
        </g>
        <g transform="matrix(4.16667,0,0,4.16667,148.104,953.791)">
            <path d="M0,71.09C19.632,71.09 35.546,55.176 35.546,35.545C35.546,15.914 19.632,0 0,0C-19.631,0 -35.545,15.914 -35.545,35.545C-35.545,55.176 -19.631,71.09 0,71.09" style="fill:rgb(116,197,255);fill-rule:nonzero;"/>
        </g>
        <g transform="matrix(4.16667,0,0,4.16667,722.75,426.538)">
            <path d="M0,0.001C0,19.632 -15.914,35.546 -35.545,35.546C-55.176,35.546 -71.09,19.632 -71.09,0.001L-71.09,0C-71.09,-19.631 -55.176,-35.545 -35.545,-35.545C-15.914,-35.545 0,-19.631 0,0L0,0.001ZM-35.545,-102.369C-92.082,-102.369 -137.915,-56.537 -137.915,0L-137.915,0.001C-137.915,56.538 -92.082,102.37 -35.545,102.37C20.992,102.37 66.825,56.538 66.825,0.001L66.825,0C66.825,-56.537 20.992,-102.369 -35.545,-102.369" style="fill:rgb(86,51,209);fill-rule:nonzero;"/>
        </g>
    </g>
</svg>
