<?xml version="1.0" encoding="UTF-8" standalone="no"?>
<!DOCTYPE svg PUBLIC "-//W3C//DTD SVG 1.1//EN" "http://www.w3.org/Graphics/SVG/1.1/DTD/svg11.dtd">
<svg width="100%" height="100%" viewBox="0 0 1080 1080" version="1.1" xmlns="http://www.w3.org/2000/svg" xmlns:xlink="http://www.w3.org/1999/xlink" xml:space="preserve" xmlns:serif="http://www.serif.com/" style="fill-rule:evenodd;clip-rule:evenodd;stroke-linejoin:round;stroke-miterlimit:2;">
    <g transform="matrix(1.13538,0,0,1.20889,-88.268,-127.255)">
        <rect x="77.743" y="105.266" width="951.227" height="893.383" style="fill:rgb(24,24,27);"/>
    </g>
    <g transform="matrix(1.20097,0,0,1.20097,-115.923,438.335)">
        <g transform="matrix(1.02,0,0,1.02,247.171,-11.0087)">
            <path d="M195.635,295.385L195.635,228.569L248.627,228.569L248.627,-40.999L195.635,-40.999L195.635,-107.815L402.995,-107.815C427.571,-107.815 448.979,-103.687 467.219,-95.431C485.459,-87.175 499.667,-75.463 509.843,-60.295C520.019,-45.127 525.107,-26.983 525.107,-5.863L525.107,-0.103C525.107,18.329 521.651,33.401 514.739,45.113C507.827,56.825 499.667,65.849 490.259,72.185C480.851,78.521 471.923,83.033 463.475,85.721L463.475,96.089C471.923,98.393 481.139,102.713 491.123,109.049C501.107,115.385 509.651,124.505 516.755,136.409C523.859,148.313 527.411,163.865 527.411,183.065L527.411,188.825C527.411,211.097 522.227,230.201 511.859,246.137C501.491,262.073 487.187,274.265 468.947,282.713C450.707,291.161 429.491,295.385 405.299,295.385L195.635,295.385ZM324.659,226.265L396.083,226.265C412.595,226.265 425.939,222.233 436.115,214.169C446.291,206.105 451.379,194.585 451.379,179.609L451.379,173.849C451.379,158.873 446.387,147.353 436.403,139.289C426.419,131.225 412.979,127.193 396.083,127.193L324.659,127.193L324.659,226.265ZM324.659,58.073L394.931,58.073C410.675,58.073 423.635,54.041 433.811,45.977C443.987,37.913 449.075,26.777 449.075,12.569L449.075,6.809C449.075,-7.783 444.083,-19.015 434.099,-26.887C424.115,-34.759 411.059,-38.695 394.931,-38.695L324.659,-38.695L324.659,58.073Z" style="fill:white;fill-rule:nonzero;"/>
        </g>
        <g transform="matrix(1,0,0,1,-260.542,-13.165)">
            <path d="M703.091,303.449C661.619,303.449 628.691,292.121 604.307,269.465C579.923,246.809 567.731,215.129 567.731,174.425L567.731,136.409L643.763,136.409L643.763,174.425C643.763,192.473 648.755,206.585 658.739,216.761C668.723,226.937 682.739,232.025 700.787,232.025C717.683,232.025 730.835,227.033 740.243,217.049C749.651,207.065 754.355,192.857 754.355,174.425L754.355,-38.695L685.235,-38.695L685.235,-107.815L876.467,-107.815L876.467,-38.695L830.387,-38.695L830.387,174.425C830.387,216.281 819.059,248.249 796.403,270.329C773.747,292.409 742.643,303.449 703.091,303.449Z" style="fill:white;fill-rule:nonzero;"/>
        </g>
    </g>
</svg>
