<?xml version="1.0" encoding="UTF-8" standalone="no"?>
<!DOCTYPE svg PUBLIC "-//W3C//DTD SVG 1.1//EN" "http://www.w3.org/Graphics/SVG/1.1/DTD/svg11.dtd">
<svg width="100%" height="100%" viewBox="0 0 600 600" version="1.1" xmlns="http://www.w3.org/2000/svg" xmlns:xlink="http://www.w3.org/1999/xlink" xml:space="preserve" xmlns:serif="http://www.serif.com/" style="fill-rule:evenodd;clip-rule:evenodd;stroke-linejoin:round;stroke-miterlimit:20;">
    <g transform="matrix(3.47509,0,0,3.19052,-32.8556,-22.0257)">
        <rect x="9.455" y="6.903" width="172.657" height="188.057"/>
        <path d="M182.112,6.903L9.455,6.903L9.455,194.961L182.112,194.961L182.112,6.903ZM178.659,10.665L178.659,191.2C178.659,191.2 12.908,191.2 12.908,191.2C12.908,167.114 12.908,34.75 12.908,10.665L178.659,10.665Z"/>
    </g>
    <g transform="matrix(2.9956,0,0,2.9956,-35.972,62.2278)">
        <g id="background" transform="matrix(0.930665,0,0,0.930665,32.155,-0.626263)">
            <path d="M171.92,31.636C171.92,14.175 157.745,0 140.284,0L31.636,0C14.175,0 0,14.175 0,31.636L0,140.284C0,157.745 14.175,171.92 31.636,171.92L140.284,171.92C157.745,171.92 171.92,157.745 171.92,140.284L171.92,31.636Z"/>
        </g>
        <g id="logo" transform="matrix(1.07539,0,0,1.07539,19.7142,-13.0671)">
            <path d="M25.24,98.36L50.4,98.36L65.7,73.96L79.89,120.86L100.71,51.06L114.59,98.35L146.68,98.36" style="fill:white;fill-opacity:0;fill-rule:nonzero;stroke:url(#_Linear1);stroke-width:13.93px;"/>
        </g>
    </g>
    <defs>
        <linearGradient id="_Linear1" x1="0" y1="0" x2="1" y2="0" gradientUnits="userSpaceOnUse" gradientTransform="matrix(121.44,0,0,69.8,25.24,85.96)"><stop offset="0" style="stop-color:rgb(236,72,153);stop-opacity:1"/><stop offset="0.5" style="stop-color:rgb(239,68,68);stop-opacity:1"/><stop offset="1" style="stop-color:rgb(245,158,11);stop-opacity:1"/></linearGradient>
    </defs>
</svg>
