<svg width="34" height="32" viewBox="0 0 34 32" fill="none" xmlns="http://www.w3.org/2000/svg">
<path d="M16.9999 24.801C15.9382 24.801 14.8897 24.7504 13.8701 24.6541C17.7607 28.9179 22.1678 30.921 25.0039 29.2826C26.8096 28.239 27.6522 25.9024 27.5812 22.9207C24.2054 24.2088 20.6165 24.8468 17.0036 24.801" fill="#FD6157"/>
<path d="M17 6.05069C18.0629 6.05069 19.1102 6.10124 20.1298 6.19755C16.244 1.93496 11.837 -0.0681321 9.00087 1.56901C7.1952 2.61269 6.35255 4.94923 6.42357 7.93099C9.79933 6.64283 13.3883 6.00485 17.0012 6.05069" fill="#FD6157"/>
<path d="M28.7794 10.0136C28.2069 13.5809 26.9649 17.0077 25.1187 20.1134C24.5855 21.0379 24.0173 21.919 23.4238 22.7545C29.0611 21.517 32.9999 18.7025 32.9999 15.4258C32.9999 13.3385 31.3989 11.4377 28.7794 10.0088" fill="#55C0CF"/>
<path d="M8.88115 10.7397C9.41443 9.81522 9.98261 8.93406 10.5761 8.09863C4.93757 9.33612 1 12.1518 1 15.4272C1 17.5146 2.59982 19.4154 5.22046 20.8443C5.79281 17.2766 7.03488 13.8493 8.88115 10.7433" fill="#55C0CF"/>
<path d="M25.1181 10.7382C25.6489 11.6579 26.1292 12.5909 26.5626 13.5262C28.3057 8.02251 27.8362 3.20739 25.0001 1.57025C23.1944 0.525367 20.7435 0.96234 18.1987 2.52003C21.0034 4.79846 23.3512 7.5874 25.1181 10.7394" fill="#A06BD6"/>
<path d="M8.88146 20.1136C8.3506 19.194 7.87029 18.261 7.43693 17.3257C5.68904 22.827 6.15851 27.6445 8.99582 29.2829C10.8015 30.3278 13.2524 29.8908 15.7972 28.3331C12.9925 26.0546 10.6447 23.2657 8.87785 20.1136" fill="#A06BD6"/>
</svg>
