<?xml version="1.0" encoding="UTF-8" standalone="no"?>
<!DOCTYPE svg PUBLIC "-//W3C//DTD SVG 1.1//EN" "http://www.w3.org/Graphics/SVG/1.1/DTD/svg11.dtd">
<svg width="100%" height="100%" viewBox="0 0 1200 1200" version="1.1" xmlns="http://www.w3.org/2000/svg" xmlns:xlink="http://www.w3.org/1999/xlink" xml:space="preserve" xmlns:serif="http://www.serif.com/" style="fill-rule:evenodd;clip-rule:evenodd;stroke-linejoin:round;stroke-miterlimit:2;">
    <g transform="matrix(1.26153,0,0,1.34321,-98.0756,-141.394)">
        <rect x="77.743" y="105.266" width="951.227" height="893.383"/>
    </g>
    <g transform="matrix(1,0,0,1,65.5713,-173.659)">
        <path d="M408.242,1014.94L408.242,938.672L595.442,938.672C608.384,938.672 614.855,931.739 614.855,917.872L614.855,831.205L602.375,831.205C598.678,839.063 592.9,846.921 585.042,854.779C577.184,862.636 566.553,869.107 553.149,874.192C539.744,879.276 522.642,881.819 501.842,881.819C475.033,881.819 451.575,875.694 431.469,863.445C411.362,851.196 395.762,834.21 384.669,812.485C373.575,790.761 368.029,765.801 368.029,737.605L368.029,532.379L455.389,532.379L455.389,730.672C455.389,756.556 461.744,775.97 474.455,788.912C487.166,801.854 505.309,808.325 528.882,808.325C555.691,808.325 576.491,799.427 591.282,781.632C606.073,763.836 613.469,738.992 613.469,707.099L613.469,532.379L700.829,532.379L700.829,937.285C700.829,960.859 693.895,979.694 680.029,993.792C666.162,1007.89 647.673,1014.94 624.562,1014.94L408.242,1014.94Z" style="fill:white;fill-rule:nonzero;"/>
    </g>
</svg>
