<?xml version="1.0" standalone="no"?>
<!DOCTYPE svg PUBLIC "-//W3C//DTD SVG 20010904//EN"
 "http://www.w3.org/TR/2001/REC-SVG-20010904/DTD/svg10.dtd">
<svg version="1.0" xmlns="http://www.w3.org/2000/svg"
 width="424.000000pt" height="424.000000pt" viewBox="0 0 424.000000 424.000000"
 preserveAspectRatio="xMidYMid meet">
<metadata>
Created by potrace 1.14, written by Peter Selinger 2001-2017
</metadata>
<g transform="translate(0.000000,424.000000) scale(0.100000,-0.100000)"
fill="#000000" stroke="none">
<path d="M3000 2650 c0 -5 5 -10 10 -10 6 0 10 5 10 10 0 6 -4 10 -10 10 -5 0
-10 -4 -10 -10z"/>
<path d="M2980 2609 c-6 -11 -10 -25 -8 -30 2 -5 8 4 15 21 13 34 9 40 -7 9z"/>
<path d="M2990 2560 c-9 -6 -10 -10 -3 -10 6 0 15 5 18 10 8 12 4 12 -15 0z"/>
<path d="M3265 2540 c3 -5 8 -10 11 -10 2 0 4 5 4 10 0 6 -5 10 -11 10 -5 0
-7 -4 -4 -10z"/>
<path d="M3308 2538 c12 -6 22 -15 22 -20 0 -13 -18 -10 -23 5 -2 6 -8 9 -12
5 -4 -4 -3 -14 4 -22 9 -10 9 -15 0 -18 -7 -2 -6 -8 5 -17 14 -12 16 -12 10 3
-8 20 3 21 22 2 12 -13 11 -17 -8 -30 -12 -9 -30 -16 -39 -16 -9 0 -22 -7 -29
-15 -7 -9 -21 -13 -31 -10 -11 4 -19 2 -19 -3 0 -11 69 -26 78 -18 3 3 0 6 -6
6 -7 0 -12 4 -12 10 0 6 10 5 25 -2 13 -6 22 -15 19 -19 -3 -5 0 -9 5 -9 14 0
14 6 0 32 -9 17 -8 19 9 14 15 -5 22 -2 25 11 3 12 5 9 6 -8 1 -33 27 -45 41
-19 5 10 10 36 10 56 0 33 -2 36 -13 20 -12 -16 -14 -16 -39 4 -17 13 -25 27
-21 36 6 17 -13 34 -37 33 -9 0 -6 -5 8 -11z"/>
<path d="M2796 2523 c2 -6 -4 -14 -12 -17 -10 -4 -13 -13 -9 -27 6 -18 4 -19
-13 -10 -16 8 -21 7 -26 -5 -13 -34 -6 -71 19 -92 l25 -21 24 22 c13 12 28 40
34 62 6 22 14 50 17 63 7 19 4 22 -23 22 -17 0 -32 3 -35 8 -2 4 -2 2 -1 -5z"/>
<path d="M2520 2494 c-74 -13 -149 -23 -167 -24 -37 0 -50 -15 -32 -36 10 -12
8 -18 -10 -36 -15 -13 -19 -24 -13 -30 12 -12 52 11 52 31 0 10 3 12 10 5 16
-16 -17 -115 -35 -108 -10 4 -13 14 -9 28 4 17 -1 25 -22 34 -27 13 -48 7 -26
-7 16 -9 5 -41 -14 -41 -7 0 -16 -11 -20 -25 -3 -14 -12 -25 -18 -25 -26 0
-34 -21 -20 -48 8 -15 14 -32 14 -38 0 -16 31 -40 63 -48 18 -4 27 -13 27 -27
0 -11 5 -17 10 -14 6 3 10 -5 10 -19 0 -13 6 -27 13 -29 8 -4 9 -8 1 -14 -7
-5 -8 -26 -4 -58 7 -45 11 -51 14 -18 1 7 6 14 11 15 6 2 11 -15 11 -37 2 -53
25 -107 41 -97 14 9 17 44 8 83 -6 22 -3 27 19 33 27 7 34 20 16 31 -6 4 -8
15 -5 26 11 33 -12 20 -23 -13 -11 -33 -11 -33 -9 12 1 25 7 48 12 52 6 5 5 8
-2 8 -7 0 -10 7 -7 15 4 8 11 15 16 15 6 0 7 -7 4 -16 -5 -12 -1 -14 17 -9 21
6 21 5 -2 -8 l-24 -14 24 -16 c25 -18 38 -15 21 5 -7 9 -6 19 4 32 8 11 14 28
14 38 0 10 5 17 12 15 6 -1 15 9 19 23 4 14 7 19 8 13 2 -21 15 -14 29 14 15
34 15 48 -2 97 -8 22 -16 34 -20 27 -4 -6 -4 -16 -1 -21 11 -18 -5 -49 -22
-43 -13 5 -15 2 -10 -11 4 -10 4 -30 0 -44 l-7 -27 -6 30 c-7 42 -47 48 -52 8
-2 -15 -4 5 -3 45 0 68 1 71 12 43 14 -33 35 -50 41 -33 2 7 10 12 18 12 8 0
14 7 14 15 0 8 -4 15 -10 15 -15 0 -12 17 3 17 6 0 18 2 26 4 25 7 57 -132 35
-154 -4 -3 -8 -53 -10 -110 l-3 -104 29 -1 c28 -1 30 2 31 36 1 20 3 51 5 67
2 17 6 62 8 100 4 72 23 154 25 107 1 -31 21 -18 21 14 0 17 -4 23 -12 18 -8
-5 -9 3 -5 29 3 22 2 37 -4 37 -5 0 -18 8 -28 18 -18 16 -18 19 7 72 15 30 36
63 47 72 20 17 20 17 -5 17 -14 -1 -86 -12 -160 -25z m-10 -55 c0 -5 -4 -9
-10 -9 -5 0 -10 7 -10 16 0 8 5 12 10 9 6 -3 10 -10 10 -16z m113 -9 c-6 -22
-7 -22 -13 -4 -4 10 -2 22 4 26 15 10 16 6 9 -22z m-183 10 c0 -5 -5 -10 -11
-10 -5 0 -7 5 -4 10 3 6 8 10 11 10 2 0 4 -4 4 -10z m-33 -52 c-2 -13 -4 -5
-4 17 -1 22 1 32 4 23 2 -10 2 -28 0 -40z m185 27 c3 -13 0 -45 -6 -69 -11
-42 -13 -44 -24 -25 -10 16 -10 24 -2 34 6 8 11 27 10 42 -3 37 -2 43 9 43 5
0 11 -11 13 -25z m-132 -26 c0 -11 -4 -18 -10 -14 -5 3 -7 12 -3 20 7 21 13
19 13 -6z m147 -71 c-3 -7 -5 -2 -5 12 0 14 2 19 5 13 2 -7 2 -19 0 -25z
m-300 -34 c-9 -9 -28 6 -21 18 4 6 10 6 17 -1 6 -6 8 -13 4 -17z m90 -18 c-1
-29 -5 -39 -10 -30 -4 8 -17 14 -27 14 -17 0 -20 -7 -19 -42 1 -37 2 -39 9
-18 5 17 8 19 9 8 1 -10 6 -18 11 -18 13 0 1 -52 -14 -62 -8 -5 -7 -8 2 -8 7
0 12 -15 12 -41 0 -45 -22 -51 -28 -8 -2 13 -8 29 -13 35 -4 5 -6 20 -2 32 4
18 1 22 -20 22 -30 0 -44 15 -50 58 -6 36 6 41 34 16 16 -15 17 -14 12 5 -4
14 -1 21 10 21 8 0 18 7 21 16 4 10 14 14 25 11 13 -3 21 1 24 14 9 33 16 20
14 -25z m82 -11 c0 -5 -4 -3 -9 5 -5 8 -9 22 -9 30 0 16 17 -16 18 -35z m-9
-94 c0 -11 -4 -22 -10 -26 -5 -3 -7 -12 -3 -20 5 -16 -12 -21 -21 -6 -7 10 16
71 26 71 4 0 8 -9 8 -19z m-104 -161 c0 -11 -4 -20 -8 -20 -4 0 -8 9 -8 20 0
11 4 20 8 20 4 0 8 -9 8 -20z"/>
<path d="M2944 2512 c-9 -5 -8 -11 2 -20 12 -11 14 -9 14 8 0 22 0 23 -16 12z"/>
<path d="M2907 2503 c-4 -6 -1 -23 7 -37 11 -22 15 -24 25 -12 10 11 9 16 -2
23 -8 4 -16 15 -19 23 -3 9 -7 10 -11 3z"/>
<path d="M2080 2490 c0 -5 11 -10 25 -10 14 0 25 -5 25 -11 0 -6 -8 -8 -17 -5
-10 3 -5 -4 12 -16 16 -13 42 -36 57 -52 21 -22 28 -25 28 -12 0 9 5 16 10 16
6 0 10 7 10 16 0 8 5 12 10 9 6 -3 13 1 16 9 3 9 12 16 19 16 8 0 17 5 20 10
4 6 -5 10 -19 10 -16 0 -26 -6 -26 -15 0 -8 -5 -15 -11 -15 -5 0 -8 4 -5 9 4
5 -3 7 -14 4 -11 -3 -44 6 -74 21 -59 29 -66 31 -66 16z m120 -60 c0 -5 -4
-10 -10 -10 -5 0 -10 5 -10 10 0 6 5 10 10 10 6 0 10 -4 10 -10z"/>
<path d="M2889 2458 c-1 -7 -1 -16 0 -20 0 -5 -5 -8 -13 -8 -16 0 -31 -53 -21
-70 4 -6 13 -9 21 -6 9 4 14 -2 14 -15 0 -15 -5 -19 -15 -15 -11 4 -15 -1 -15
-18 0 -26 -43 -71 -59 -61 -6 3 -11 13 -11 22 0 14 -3 13 -21 -3 -16 -14 -23
-16 -26 -6 -4 10 -8 10 -19 1 -11 -9 -14 -8 -15 7 -1 14 -3 13 -9 -6 -4 -14
-8 -33 -9 -43 -1 -15 2 -16 19 -7 15 8 20 8 20 -1 0 -8 4 -8 15 1 12 10 16 9
21 -4 3 -9 10 -13 15 -10 5 3 9 -1 9 -8 0 -9 3 -9 8 -2 20 31 88 -11 79 -48
-3 -10 -1 -18 4 -18 9 0 13 22 9 50 -1 8 -11 22 -22 31 -25 20 -18 52 8 42 12
-4 15 -3 10 6 -4 6 -2 18 4 26 6 8 9 19 5 26 -5 8 -2 8 11 1 24 -12 80 -4 95
14 6 8 23 14 36 14 19 0 24 4 19 16 -3 9 -6 18 -6 20 0 2 -11 4 -25 4 -14 0
-24 3 -24 8 4 21 -3 32 -17 32 -14 0 -14 -3 -4 -15 22 -26 4 -16 -34 19 -20
19 -36 39 -36 45 0 15 -20 14 -21 -1z m41 -98 c0 -5 -5 -10 -11 -10 -5 0 -7 5
-4 10 3 6 8 10 11 10 2 0 4 -4 4 -10z m60 -20 c-8 -5 -17 -7 -19 -4 -3 3 1 9
9 14 8 5 17 7 19 4 3 -3 -1 -9 -9 -14z m-39 -17 c-12 -20 -14 -14 -5 12 4 9 9
14 11 11 3 -2 0 -13 -6 -23z"/>
<path d="M3090 2430 c0 -5 5 -10 10 -10 6 0 10 5 10 10 0 6 -4 10 -10 10 -5 0
-10 -4 -10 -10z"/>
<path d="M2680 2416 c0 -8 5 -18 10 -21 6 -3 10 3 10 14 0 12 -4 21 -10 21 -5
0 -10 -6 -10 -14z"/>
<path d="M3481 2384 c0 -11 3 -14 6 -6 3 7 2 16 -1 19 -3 4 -6 -2 -5 -13z"/>
<path d="M3150 2380 c0 -5 5 -10 10 -10 6 0 10 5 10 10 0 6 -4 10 -10 10 -5 0
-10 -4 -10 -10z"/>
<path d="M3417 2375 c-15 -11 -17 -21 -11 -64 4 -34 3 -56 -6 -65 -14 -18 -4
-40 16 -32 8 3 14 1 14 -5 0 -7 -12 -9 -32 -5 -18 3 -39 7 -45 8 -7 1 -14 5
-14 10 -3 19 -5 24 -13 37 -14 22 -25 81 -14 81 5 0 7 3 5 8 -3 4 -20 6 -39 5
-18 -1 -52 -2 -75 -2 -25 -1 -43 -6 -43 -12 0 -7 10 -9 24 -7 17 4 23 1 19 -9
-4 -9 5 -13 28 -13 l34 -1 -33 -29 c-26 -24 -29 -30 -14 -30 11 0 27 9 37 20
17 19 35 19 35 0 0 -5 -8 -16 -17 -26 -17 -17 -17 -17 2 -12 16 4 21 0 21 -16
0 -12 -7 -26 -15 -32 -20 -16 -5 -34 29 -34 16 0 32 -4 35 -10 3 -5 23 -10 43
-10 20 0 53 -5 72 -10 19 -6 54 -11 78 -11 28 -1 42 -6 42 -15 0 -8 4 -14 9
-14 5 0 22 -26 37 -57 16 -32 34 -62 41 -68 16 -13 32 -119 25 -170 -3 -22 -5
-50 -5 -62 1 -13 -4 -23 -9 -23 -6 0 -8 -7 -4 -15 3 -8 1 -15 -4 -15 -6 0 -6
-10 -2 -22 8 -21 8 -41 2 -53 -1 -3 -3 -9 -4 -14 0 -5 -4 -13 -8 -17 -5 -4 -8
-15 -8 -25 0 -10 -10 -25 -21 -33 -14 -9 -19 -21 -15 -31 3 -9 -1 -18 -10 -22
-8 -3 -13 -12 -10 -20 4 -9 -1 -17 -13 -20 -12 -3 -17 -11 -14 -19 3 -8 0 -14
-6 -14 -6 0 -8 -7 -5 -15 4 -8 1 -15 -5 -15 -6 0 -11 -6 -11 -12 0 -14 -77
-88 -91 -88 -5 0 -9 -7 -9 -16 0 -8 -4 -13 -9 -10 -5 3 -12 -1 -15 -10 -4 -9
-5 -18 -4 -18 2 -1 21 -15 42 -31 39 -29 86 -42 86 -24 0 5 6 9 13 9 6 0 21
14 32 30 14 21 26 29 38 26 15 -4 18 0 14 15 -4 17 -3 18 9 8 17 -14 18 -47 3
-86 -8 -22 -12 -24 -19 -13 -7 11 -10 8 -10 -13 0 -25 -2 -27 -20 -17 -16 9
-22 8 -27 -6 -8 -21 15 -35 45 -27 22 5 23 4 13 -16 -7 -13 -21 -21 -37 -21
-14 0 -23 4 -20 9 10 15 -23 36 -36 23 -8 -8 -7 -13 6 -18 19 -7 19 -7 -52
-80 -35 -36 -29 -35 50 3 26 13 59 23 72 23 14 0 27 4 31 10 3 5 12 7 20 3 8
-3 15 0 15 6 0 6 8 11 17 11 15 0 15 -1 -2 -13 -14 -11 -15 -16 -5 -22 9 -5
15 -4 18 3 4 13 22 17 22 4 0 -16 -42 -34 -53 -23 -6 6 -18 11 -26 11 -14 0
-14 -2 -2 -9 12 -8 11 -13 -10 -30 -13 -11 -27 -20 -31 -21 -5 0 -8 -7 -8 -16
0 -9 6 -14 13 -11 6 2 30 10 52 18 22 8 42 17 45 20 3 3 18 9 35 13 28 7 29 7
12 -12 -24 -26 -22 -28 23 -30 23 -2 40 2 40 8 0 5 10 10 23 10 20 -1 20 -2
-7 -17 -25 -13 -27 -17 -15 -27 8 -6 14 -18 14 -26 0 -9 7 -14 19 -12 11 2 15
-1 11 -7 -11 -20 -45 -13 -45 9 0 13 -7 20 -20 20 -11 0 -20 -4 -20 -10 0 -5
6 -9 12 -7 7 1 14 -8 16 -20 2 -17 -2 -23 -16 -23 -20 0 -66 -43 -56 -53 3 -3
24 4 45 15 22 11 46 17 54 14 9 -3 20 3 27 14 7 11 20 20 29 20 9 0 27 8 40
18 l22 19 -21 5 c-12 4 -22 2 -22 -4 0 -5 -7 -2 -16 7 -9 8 -14 22 -11 29 8
19 55 26 68 10 12 -14 33 -9 24 6 -6 9 20 21 29 13 3 -4 1 -12 -5 -19 -9 -11
-2 -15 30 -20 22 -4 39 -9 37 -13 -2 -3 11 -7 30 -8 53 -3 40 14 -16 22 -51 7
-70 25 -26 25 13 0 26 7 30 15 3 9 0 15 -9 15 -18 0 -20 16 -2 23 8 4 9 6 0 6
-6 1 -18 -6 -27 -14 -16 -17 -42 -20 -50 -6 -3 5 10 16 30 26 26 12 33 20 25
28 -8 8 -14 8 -23 -1 -7 -7 -25 -12 -41 -12 -26 0 -27 1 -12 16 9 9 14 23 11
31 -3 7 0 13 7 12 6 -1 19 0 27 1 8 2 -12 6 -45 10 -46 5 -55 9 -37 15 26 9
29 25 5 26 -10 1 0 5 22 10 22 5 49 13 60 19 11 5 34 11 50 13 17 2 7 5 -23 6
-32 0 -51 5 -47 11 3 6 -1 7 -9 4 -9 -3 -16 -2 -16 4 0 6 12 14 28 20 24 8 21
9 -33 15 -41 4 -62 2 -67 -6 -5 -9 -10 -9 -18 -1 -17 17 36 49 55 34 8 -7 19
-9 24 -6 5 4 12 3 15 -2 2 -4 22 -9 43 -10 21 -2 40 -7 41 -12 2 -6 20 -10 40
-9 28 0 32 2 18 8 -22 9 -13 18 32 31 l27 8 -28 1 c-15 1 -38 -5 -50 -13 -18
-12 -27 -12 -52 -2 l-30 12 46 27 c25 15 52 27 60 27 8 0 23 7 33 15 11 8 28
15 38 15 10 0 21 7 25 15 7 21 -4 32 -19 17 -7 -7 -21 -12 -32 -12 -11 0 -28
-7 -37 -16 -19 -18 -32 -20 -141 -31 -47 -4 -72 -2 -82 6 -12 10 -22 10 -47
-3 -40 -20 -49 -20 -49 -2 0 8 -4 18 -10 21 -6 3 -7 -1 -4 -9 4 -11 0 -16 -12
-17 -16 0 -15 -2 4 -9 37 -16 25 -23 -28 -16 -32 4 -50 3 -50 -4 0 -5 -8 -10
-17 -10 -13 0 -10 -5 10 -19 l29 -18 -31 -5 c-16 -2 -29 -2 -29 1 1 3 -4 19
-11 36 -8 20 -9 31 -2 33 6 2 11 10 11 19 0 10 6 12 22 8 18 -6 20 -4 14 11
-13 33 -11 38 14 42 14 2 30 8 35 14 7 8 6 9 -2 4 -18 -10 -43 4 -43 24 0 10
10 25 23 33 l22 16 -22 -6 c-27 -6 -33 21 -7 31 10 4 14 12 10 23 -4 9 -1 20
6 25 9 5 5 8 -11 8 -23 0 -24 1 -6 20 10 11 13 20 7 20 -7 0 -18 15 -25 33
-13 30 -12 35 12 69 14 20 29 34 32 32 8 -5 19 33 11 40 -3 3 -14 6 -24 6 -22
0 -23 13 -2 31 14 12 14 14 1 24 -22 16 -26 96 -7 113 13 12 13 13 -2 8 -14
-4 -18 1 -19 22 -1 15 -2 34 -3 42 -2 8 -3 23 -4 32 -1 11 -8 15 -17 12 -9 -4
-18 1 -22 12 -3 11 -9 21 -12 24 -17 14 -31 54 -31 84 0 19 -5 38 -11 42 -6 3
-9 15 -6 25 3 11 1 19 -4 19 -5 0 -9 6 -9 14 0 10 -10 5 -31 -14 -17 -15 -45
-30 -63 -33 -32 -5 -56 6 -37 17 6 4 11 16 11 28 0 15 -3 18 -12 11 -36 -27
-43 -22 -42 31 2 73 2 74 21 78 14 3 14 5 2 15 -11 9 -18 8 -32 -2z m123 -245
c0 -5 -5 -10 -11 -10 -5 0 -7 5 -4 10 3 6 8 10 11 10 2 0 4 -4 4 -10z m463
-869 c10 -1 15 -6 12 -12 -4 -6 -26 -9 -50 -8 -28 2 -52 -3 -70 -15 -19 -12
-30 -15 -37 -8 -17 17 46 49 89 46 21 -1 46 -2 56 -3z m-173 -53 c0 -6 -7 -7
-16 -4 -9 3 -27 9 -40 12 -13 3 -24 10 -24 14 0 4 18 3 40 -2 22 -6 40 -15 40
-20z m-52 -20 c-3 -7 -12 -14 -21 -16 -12 -2 -15 1 -11 12 7 19 38 22 32 4z
m67 2 c-4 -6 5 -10 19 -10 14 0 26 -5 26 -11 0 -10 -48 -5 -58 6 -5 4 7 25 14
25 3 0 2 -4 -1 -10z m-174 -53 c-13 -13 -15 1 -4 30 7 17 8 17 11 -1 2 -10 -1
-23 -7 -29z m217 -39 c15 -15 15 -28 1 -28 -15 0 -39 26 -32 34 9 9 18 7 31
-6z m-7 -48 c5 0 9 -7 9 -15 0 -8 -9 -15 -20 -15 -11 0 -20 7 -20 16 0 8 -4
13 -9 10 -5 -4 -7 3 -4 14 5 17 7 17 20 5 8 -8 19 -15 24 -15z m-105 -47 c-11
-11 -19 6 -11 24 8 17 8 17 12 0 3 -10 2 -21 -1 -24z m94 -133 c0 -5 -4 -10
-10 -10 -5 0 -10 5 -10 10 0 6 5 10 10 10 6 0 10 -4 10 -10z"/>
<path d="M2683 2315 c-3 -9 -3 -18 -1 -21 3 -3 8 4 11 16 6 23 -1 27 -10 5z"/>
<path d="M2710 2304 c0 -8 5 -12 10 -9 6 3 10 10 10 16 0 5 -4 9 -10 9 -5 0
-10 -7 -10 -16z"/>
<path d="M2740 2316 c0 -2 9 -6 20 -9 11 -3 20 -1 20 4 0 5 -9 9 -20 9 -11 0
-20 -2 -20 -4z"/>
<path d="M3153 2289 c-2 -32 -1 -33 25 -20 9 5 26 13 37 17 17 7 16 8 -10 12
-16 2 -34 7 -40 12 -6 5 -11 -3 -12 -21z"/>
<path d="M3470 2299 c0 -5 5 -7 10 -4 6 3 10 8 10 11 0 2 -4 4 -10 4 -5 0 -10
-5 -10 -11z"/>
<path d="M3131 2284 c0 -11 3 -14 6 -6 3 7 2 16 -1 19 -3 4 -6 -2 -5 -13z"/>
<path d="M3500 2270 c0 -5 5 -10 10 -10 6 0 10 5 10 10 0 6 -4 10 -10 10 -5 0
-10 -4 -10 -10z"/>
<path d="M363 2192 l-72 -57 4 -134 c4 -105 8 -136 20 -145 8 -6 19 -34 24
-61 5 -28 23 -111 41 -185 18 -74 38 -166 46 -203 8 -38 20 -92 29 -120 8 -29
17 -68 20 -87 3 -19 13 -62 22 -95 8 -33 17 -70 18 -82 6 -44 18 -88 25 -93 5
-3 4 -28 -1 -55 -5 -28 -14 -95 -20 -149 -5 -55 -14 -108 -20 -118 -9 -17 -27
-18 -254 -18 -211 0 -245 -2 -245 -15 0 -13 33 -15 235 -15 l235 0 -32 -45
c-18 -25 -35 -45 -40 -45 -4 0 -6 -10 -4 -23 l3 -22 384 3 c213 2 388 8 394
13 5 5 120 9 256 9 227 0 248 1 253 18 5 15 22 17 178 15 95 -1 233 3 307 9
115 10 135 15 139 30 4 17 37 18 677 18 369 0 795 2 946 5 252 4 269 4 213 -9
-33 -8 -78 -17 -100 -19 -21 -2 -93 -14 -159 -26 -66 -12 -169 -30 -230 -41
-229 -40 -221 -38 -115 -39 52 0 114 4 137 9 23 5 63 12 90 16 26 3 80 12 118
20 39 8 102 19 140 24 39 5 103 17 143 26 69 15 72 17 72 45 l0 29 -967 -2
-968 -3 0 40 c0 37 -2 39 -33 41 -18 1 -59 12 -91 24 -52 19 -66 21 -111 11
-32 -7 -197 -11 -445 -11 -419 0 -406 -1 -389 44 5 14 40 16 280 16 205 0 279
3 291 12 8 7 45 40 80 73 l65 60 -7 60 c-3 33 -15 96 -25 140 -10 44 -21 98
-24 120 -4 22 -15 81 -25 130 -17 81 -36 175 -86 435 -9 47 -26 103 -37 125
-14 27 -18 51 -15 78 3 21 1 53 -4 70 -5 18 -14 64 -19 102 -16 115 45 105
-664 104 l-611 0 -72 -57z m1301 11 c3 -10 8 -34 10 -54 3 -20 14 -76 25 -125
12 -49 23 -102 25 -119 2 -16 10 -64 19 -105 8 -41 27 -138 42 -215 15 -77 35
-178 46 -225 10 -47 21 -103 24 -125 3 -22 13 -69 21 -105 8 -36 17 -83 20
-105 3 -22 10 -57 15 -79 10 -38 10 -40 -37 -87 -27 -27 -52 -45 -56 -41 -4 4
-15 45 -23 91 -9 45 -20 93 -25 106 -5 13 -11 44 -14 69 -3 25 -15 82 -26 126
-11 44 -22 92 -24 107 -1 16 -12 69 -24 118 -35 150 -61 268 -66 300 -24 136
-76 357 -88 372 -8 10 -143 13 -592 13 -319 0 -582 2 -584 5 -2 4 10 16 25 28
15 12 36 32 46 44 l18 23 609 0 c571 0 609 -1 614 -17z m-166 -127 c2 -3 -20
-47 -50 -98 -30 -51 -57 -101 -61 -110 -6 -18 -15 -19 -307 -21 -14 0 -178 3
-365 7 -268 6 -345 11 -362 22 -21 13 -23 22 -23 108 0 81 2 95 17 98 26 5
1145 -1 1151 -6z m32 -92 c0 -13 11 -71 24 -127 33 -141 65 -285 71 -327 3
-19 15 -69 25 -111 11 -42 22 -92 24 -111 3 -20 12 -62 20 -94 9 -33 18 -77
21 -99 4 -22 13 -65 21 -96 18 -73 45 -212 41 -216 -2 -1 -34 5 -72 15 -69 17
-70 17 -78 57 -14 68 -57 255 -84 365 -14 57 -26 114 -28 126 -1 11 -9 50 -18
85 -13 55 -37 158 -78 341 -10 46 -10 48 42 137 52 89 69 103 69 55z m-603
-166 c495 -13 457 -7 468 -70 2 -13 14 -63 25 -113 12 -49 32 -137 45 -195 13
-58 33 -145 45 -195 11 -49 23 -101 25 -115 4 -22 18 -83 61 -263 8 -33 12
-63 8 -68 -3 -5 -84 -9 -180 -9 l-174 0 0 43 c0 23 9 96 19 162 11 66 22 143
25 170 2 28 8 77 11 110 7 59 -19 291 -34 308 -4 4 -18 2 -32 -5 -24 -11 -27
-20 -48 -182 -12 -94 -24 -196 -26 -226 -3 -30 -11 -104 -20 -165 -14 -96 -34
-291 -39 -365 l-1 -25 -284 -3 -284 -2 7 42 c4 24 10 68 12 98 3 30 13 109 24
175 10 66 21 147 24 180 3 33 14 116 25 185 11 69 22 156 26 194 l7 68 258 -7
c195 -6 259 -5 265 4 4 7 5 14 3 16 -2 2 -119 7 -259 10 -141 4 -264 7 -275 8
-20 2 -25 -16 -39 -153 -4 -36 -15 -120 -26 -187 -10 -68 -19 -138 -19 -157 0
-67 -12 -71 -31 -11 -10 32 -21 76 -24 99 -4 23 -15 75 -25 116 -35 144 -61
255 -66 285 -3 17 -13 62 -23 100 -10 39 -21 89 -25 113 l-6 42 52 0 c29 0
257 -5 505 -12z m328 -328 c3 -36 11 -85 16 -110 12 -50 6 -112 -42 -435 -16
-110 -31 -226 -35 -257 -4 -47 -9 -58 -24 -58 -34 0 -33 37 10 390 11 85 22
184 25 220 3 36 13 113 21 171 8 58 14 110 13 115 -3 15 1 38 5 33 2 -2 7 -33
11 -69z m465 -711 c18 -5 7 -8 -37 -8 -51 -1 -61 2 -57 14 6 14 32 13 94 -6z
m455 -134 c38 -15 74 -24 82 -21 10 4 13 -7 13 -43 l0 -48 -85 -7 c-47 -4 -90
-4 -95 -1 -15 9 -13 132 3 138 6 3 13 6 13 6 1 1 32 -10 69 -24z m-125 -62 l0
-68 -177 2 -177 2 -37 43 c-32 37 -38 41 -44 25 -6 -13 2 -28 25 -52 18 -18
29 -38 26 -44 -5 -7 -85 -11 -247 -11 l-239 0 0 44 c0 29 -5 46 -15 49 -21 9
-24 -2 -15 -58 4 -27 7 -51 6 -51 0 -1 -165 -5 -365 -9 l-365 -7 50 62 49 62
297 -2 c271 -1 297 1 306 16 9 16 35 18 233 22 202 4 269 11 228 27 -8 2 -88
6 -179 8 -91 1 16 4 238 5 l402 2 0 -67z"/>
<path d="M3508 2223 c7 -3 16 -2 19 1 4 3 -2 6 -13 5 -11 0 -14 -3 -6 -6z"/>
<path d="M3065 2210 c-4 -6 -21 -8 -40 -4 -31 6 -33 4 -28 -18 3 -12 2 -20 -2
-16 -4 4 -16 -3 -25 -15 -10 -12 -22 -19 -26 -15 -4 4 -1 14 6 23 18 22 8 27
-18 9 -26 -18 -31 -57 -6 -47 13 5 15 2 9 -18 -6 -19 -5 -21 5 -12 7 6 19 9
28 6 10 -4 13 -2 8 5 -5 8 -2 10 8 6 9 -3 16 -11 16 -16 0 -6 6 -5 15 2 8 6
19 9 25 5 5 -3 10 1 10 9 0 19 -12 20 -28 4 -10 -10 -15 -10 -22 2 -14 22 -12
30 5 24 9 -4 15 0 15 10 0 16 21 22 34 9 14 -15 85 -30 125 -28 22 1 38 -2 35
-6 -3 -5 2 -9 11 -9 21 0 31 29 17 51 -16 25 -15 29 8 29 11 0 20 5 20 10 0
12 -36 5 -87 -16 -20 -8 -35 -9 -38 -3 -4 5 -18 6 -32 3 -22 -6 -25 -4 -20 10
7 18 -17 23 -28 6z"/>
<path d="M2789 2153 c-3 -28 -4 -32 -11 -39 -5 -4 -8 -1 -8 6 0 19 -16 1 -25
-27 l-6 -23 35 23 c37 23 42 33 26 57 -7 10 -10 11 -11 3z"/>
<path d="M2710 2130 c0 -5 -7 -10 -15 -10 -17 0 -20 -16 -5 -25 6 -3 10 -1 10
5 0 6 5 8 10 5 6 -3 10 -4 10 -1 0 2 3 11 6 20 3 9 1 16 -5 16 -6 0 -11 -4
-11 -10z"/>
<path d="M2210 2115 c4 -41 1 -48 -15 -35 -20 17 -21 -7 -1 -29 8 -9 16 -40
17 -69 2 -29 6 -55 11 -58 5 -3 6 -10 3 -15 -4 -5 0 -9 7 -9 10 0 12 19 10 83
-5 118 -6 125 -20 139 -11 11 -13 10 -12 -7z"/>
<path d="M3076 2095 c4 -8 10 -15 15 -15 5 0 9 7 9 15 0 8 -7 15 -15 15 -9 0
-12 -6 -9 -15z"/>
<path d="M2810 2090 c0 -5 -8 -6 -17 -3 -13 5 -15 3 -9 -13 5 -10 9 -25 9 -31
0 -15 23 -17 32 -3 3 6 -1 10 -9 10 -9 0 -16 5 -16 10 0 6 7 10 15 10 8 0 15
7 15 15 0 8 -4 15 -10 15 -5 0 -10 -4 -10 -10z"/>
<path d="M2852 2078 c-18 -18 -15 -38 6 -38 9 0 28 -3 42 -7 22 -6 23 -4 12 9
-10 13 -10 17 0 21 7 3 4 6 -7 6 -12 1 -25 6 -31 11 -7 7 -14 6 -22 -2z"/>
<path d="M3485 2060 c-3 -5 -2 -10 4 -10 5 0 13 5 16 10 3 6 2 10 -4 10 -5 0
-13 -4 -16 -10z"/>
<path d="M2760 2050 c-9 -6 -10 -10 -3 -10 6 0 15 5 18 10 8 12 4 12 -15 0z"/>
<path d="M2950 2040 c-13 -8 -12 -10 3 -10 9 0 17 5 17 10 0 12 -1 12 -20 0z"/>
<path d="M3070 2040 c0 -5 5 -10 10 -10 6 0 10 5 10 10 0 6 -4 10 -10 10 -5 0
-10 -4 -10 -10z"/>
<path d="M3504 2029 c-3 -5 -1 -9 5 -9 5 0 16 -3 25 -6 9 -3 16 -2 16 4 0 13
-38 23 -46 11z"/>
<path d="M3000 1999 c0 -5 5 -7 10 -4 6 3 10 8 10 11 0 2 -4 4 -10 4 -5 0 -10
-5 -10 -11z"/>
<path d="M3080 1975 c-8 -9 -8 -15 -2 -15 12 0 26 19 19 26 -2 2 -10 -2 -17
-11z"/>
<path d="M2945 1950 c-3 -5 1 -10 10 -10 9 0 13 5 10 10 -3 6 -8 10 -10 10 -2
0 -7 -4 -10 -10z"/>
<path d="M3538 1953 c7 -3 16 -2 19 1 4 3 -2 6 -13 5 -11 0 -14 -3 -6 -6z"/>
<path d="M3010 1940 c0 -5 7 -10 15 -10 8 0 15 5 15 10 0 6 -7 10 -15 10 -8 0
-15 -4 -15 -10z"/>
<path d="M2780 1935 c-8 -2 -32 -6 -52 -10 -73 -12 -119 -80 -132 -195 -4 -43
-15 -70 -27 -70 -5 0 -9 -7 -9 -15 0 -8 -9 -15 -20 -15 -11 0 -20 -4 -20 -10
0 -5 -12 -10 -26 -10 -21 0 -24 -3 -15 -13 6 -8 7 -17 3 -21 -4 -4 -7 -11 -8
-14 -3 -26 -19 -41 -42 -40 -39 0 -82 -19 -82 -37 0 -9 -9 -19 -20 -23 -20 -7
-20 -7 0 -20 17 -11 20 -10 20 8 0 21 16 26 40 10 11 -7 17 -5 22 8 5 13 7 10
7 -10 1 -15 5 -29 11 -33 5 -3 7 -13 4 -23 -3 -9 9 -1 28 18 18 19 49 43 68
53 27 14 38 28 50 65 12 37 19 46 35 45 11 -2 35 0 53 3 l34 5 -22 19 c-12 10
-20 27 -18 37 3 15 14 18 73 18 112 1 170 39 203 133 14 39 21 49 33 42 8 -5
32 -9 54 -8 22 1 34 3 27 6 -18 6 5 32 28 32 10 0 21 7 24 15 5 13 -1 15 -32
11 -20 -2 -44 -7 -53 -11 -8 -3 -57 8 -108 25 -91 29 -100 31 -131 25z m-245
-435 c-3 -5 -12 -10 -18 -10 -7 0 -6 4 3 10 19 12 23 12 15 0z m-135 -20 c0
-5 -5 -10 -11 -10 -5 0 -7 5 -4 10 3 6 8 10 11 10 2 0 4 -4 4 -10z"/>
<path d="M2995 1910 c-3 -5 -2 -10 4 -10 5 0 13 5 16 10 3 6 2 10 -4 10 -5 0
-13 -4 -16 -10z"/>
<path d="M2110 1852 c-35 -17 -60 -38 -60 -49 0 -7 -5 -13 -12 -13 -15 0 -78
-42 -78 -52 0 -5 7 -8 15 -8 8 0 15 -6 15 -12 0 -10 2 -10 8 -1 4 6 21 13 37
15 28 3 32 -1 50 -46 28 -69 69 -93 133 -78 55 12 62 9 37 -18 -22 -24 -15
-36 13 -21 23 12 52 79 52 119 0 34 -31 99 -65 136 -22 24 -37 30 -79 33 -28
1 -58 -1 -66 -5z m44 -171 c-6 -7 -44 36 -44 50 0 7 11 -1 25 -17 13 -15 22
-30 19 -33z"/>
<path d="M3355 1850 c-4 -6 6 -10 22 -10 22 0 25 2 13 10 -19 12 -27 12 -35 0z"/>
<path d="M2460 1830 c0 -11 7 -20 15 -20 8 0 15 -7 15 -15 0 -8 5 -15 10 -15
20 0 9 38 -15 54 -24 16 -25 16 -25 -4z"/>
<path d="M3290 1828 c0 -20 -5 -23 -37 -23 -30 0 -38 -4 -41 -20 -3 -11 -9
-23 -16 -27 -7 -5 -6 -8 4 -8 23 0 43 16 36 28 -11 18 13 24 30 8 8 -9 23 -20
32 -25 21 -12 12 -21 -30 -31 l-33 -8 33 -7 c31 -7 32 -9 16 -26 -15 -17 -14
-17 8 -12 21 6 22 5 9 -10 -12 -15 -11 -17 11 -17 13 0 28 -4 34 -9 13 -12
103 -35 111 -28 3 3 -15 11 -41 18 -25 6 -46 16 -46 21 0 12 50 2 91 -19 25
-12 36 -13 56 -4 25 11 25 12 7 26 -18 14 -18 15 5 22 23 6 24 7 5 14 -10 4
-31 8 -45 8 -15 1 -29 8 -33 16 -4 12 0 14 22 10 l27 -6 -24 18 c-25 18 -27
19 -74 21 -25 2 -27 4 -13 17 8 8 25 19 38 24 23 10 23 10 -4 10 -14 1 -29 -5
-31 -11 -4 -9 -8 -9 -14 -3 -4 6 -20 16 -35 24 -16 8 -28 18 -28 23 0 4 -7 8
-15 8 -9 0 -15 -9 -15 -22z"/>
<path d="M3130 1790 c-13 -9 -13 -10 0 -10 8 0 22 5 30 10 13 9 13 10 0 10 -8
0 -22 -5 -30 -10z"/>
<path d="M3150 1770 c0 -5 7 -10 15 -10 8 0 15 5 15 10 0 6 -7 10 -15 10 -8 0
-15 -4 -15 -10z"/>
<path d="M2440 1746 c0 -8 5 -18 10 -21 6 -3 10 1 10 9 0 8 -4 18 -10 21 -5 3
-10 -1 -10 -9z"/>
<path d="M2957 1719 c-24 -25 -27 -32 -16 -45 11 -13 15 -12 36 12 42 50 25
79 -20 33z"/>
<path d="M3197 1703 c-3 -5 10 -8 29 -9 19 0 34 3 34 8 0 10 -57 11 -63 1z"/>
<path d="M2882 1656 c-24 -7 -46 -17 -50 -23 -4 -6 -20 -15 -35 -18 l-28 -7
27 -14 c24 -13 29 -12 62 16 20 17 47 30 59 30 14 0 23 6 23 15 0 17 1 17 -58
1z"/>
<path d="M2768 1638 c-16 -5 -28 -14 -28 -20 0 -6 8 -7 18 -3 9 4 25 10 35 12
9 3 17 9 17 14 0 11 -7 10 -42 -3z"/>
<path d="M3785 1620 c-3 -5 -1 -10 4 -10 6 0 11 5 11 10 0 6 -2 10 -4 10 -3 0
-8 -4 -11 -10z"/>
<path d="M4150 1616 c0 -9 5 -16 10 -16 6 0 10 4 10 9 0 6 -4 13 -10 16 -5 3
-10 -1 -10 -9z"/>
<path d="M2115 1580 c4 -6 11 -8 16 -5 14 9 11 15 -7 15 -8 0 -12 -5 -9 -10z"/>
<path d="M2155 1580 c-4 -6 5 -10 20 -10 15 0 24 4 20 10 -3 6 -12 10 -20 10
-8 0 -17 -4 -20 -10z"/>
<path d="M4005 1570 c-4 -6 5 -10 19 -10 14 0 26 5 26 10 0 6 -9 10 -19 10
-11 0 -23 -4 -26 -10z"/>
<path d="M2270 1535 c0 -8 2 -15 4 -15 2 0 6 7 10 15 3 8 1 15 -4 15 -6 0 -10
-7 -10 -15z"/>
<path d="M4000 1520 c0 -5 5 -10 10 -10 6 0 10 5 10 10 0 6 -4 10 -10 10 -5 0
-10 -4 -10 -10z"/>
<path d="M2310 1490 c0 -5 5 -10 11 -10 5 0 7 5 4 10 -3 6 -8 10 -11 10 -2 0
-4 -4 -4 -10z"/>
<path d="M2668 1486 c-52 -13 -48 -29 5 -21 48 8 55 12 41 23 -5 5 -26 4 -46
-2z"/>
<path d="M3977 1493 c-12 -12 -7 -22 8 -17 8 4 15 10 15 15 0 11 -14 12 -23 2z"/>
<path d="M2765 1480 c-3 -5 1 -10 10 -10 9 0 13 5 10 10 -3 6 -8 10 -10 10 -2
0 -7 -4 -10 -10z"/>
<path d="M2815 1460 c3 -5 15 -10 26 -10 10 0 19 5 19 10 0 6 -12 10 -26 10
-14 0 -23 -4 -19 -10z"/>
<path d="M3936 1424 c-8 -21 -1 -28 19 -20 9 3 15 11 13 18 -7 19 -25 20 -32
2z"/>
<path d="M4062 1424 c-7 -8 -24 -14 -38 -14 -14 0 -23 -4 -19 -10 3 -5 -6 -17
-20 -26 -14 -9 -24 -23 -21 -30 3 -8 -1 -14 -8 -14 -15 0 -42 -28 -34 -36 3
-3 27 13 52 36 26 22 54 40 63 40 8 0 26 8 39 19 19 15 21 21 11 34 -10 14
-14 14 -25 1z"/>
<path d="M2395 1398 c2 -30 14 -55 29 -61 7 -3 11 3 10 17 -3 36 -16 66 -28
66 -7 0 -11 -10 -11 -22z"/>
<path d="M2700 1409 c0 -5 5 -7 10 -4 6 3 10 8 10 11 0 2 -4 4 -10 4 -5 0 -10
-5 -10 -11z"/>
<path d="M3745 1390 c-3 -5 -2 -10 4 -10 5 0 13 5 16 10 3 6 2 10 -4 10 -5 0
-13 -4 -16 -10z"/>
<path d="M3855 1360 c-3 -5 -1 -10 4 -10 6 0 11 5 11 10 0 6 -2 10 -4 10 -3 0
-8 -4 -11 -10z"/>
<path d="M3830 1330 c0 -5 10 -10 23 -10 18 0 19 2 7 10 -19 13 -30 13 -30 0z"/>
<path d="M3383 1173 c4 -3 0 -11 -9 -17 -21 -16 -8 -49 14 -36 47 27 48 28 27
44 -20 15 -45 22 -32 9z"/>
<path d="M3407 1108 c-33 -41 -33 -44 -2 -50 19 -4 25 -1 25 13 0 18 10 23 37
20 19 -3 25 18 9 34 -22 23 -39 18 -69 -17z"/>
<path d="M4160 1080 c0 -5 5 -10 10 -10 6 0 10 5 10 10 0 6 -4 10 -10 10 -5 0
-10 -4 -10 -10z"/>
<path d="M3340 1065 c-7 -9 -11 -18 -8 -20 3 -3 11 1 18 10 7 9 11 18 8 20 -3
3 -11 -1 -18 -10z"/>
<path d="M3450 1070 c-9 -6 -10 -10 -3 -10 6 0 15 5 18 10 8 12 4 12 -15 0z"/>
<path d="M3489 1021 c-13 -11 -21 -22 -17 -26 9 -9 26 2 38 26 13 24 8 24 -21
0z"/>
<path d="M4192 962 c-20 -22 -50 -42 -66 -46 -20 -5 -26 -10 -19 -17 8 -8 17
-7 32 0 12 7 21 8 21 5 0 -4 13 7 28 24 16 18 34 32 40 32 7 0 12 9 12 20 0
27 -4 26 -48 -18z"/>
<path d="M4110 975 c-7 -8 -8 -15 -2 -15 5 0 15 7 22 15 7 8 8 15 2 15 -5 0
-15 -7 -22 -15z"/>
<path d="M3605 960 c-3 -5 1 -10 9 -10 9 0 16 5 16 10 0 6 -4 10 -9 10 -6 0
-13 -4 -16 -10z"/>
<path d="M3998 853 c6 -2 18 -2 25 0 6 3 1 5 -13 5 -14 0 -19 -2 -12 -5z"/>
<path d="M3711 830 c-12 -11 -28 -17 -34 -13 -6 3 -7 1 -3 -5 11 -19 32 -14
63 13 34 30 10 34 -26 5z"/>
<path d="M4057 775 c-4 -9 -19 -15 -37 -15 -20 0 -29 4 -24 11 4 8 0 8 -15 0
-11 -6 -32 -9 -46 -5 -15 4 -25 2 -25 -5 0 -6 -10 -11 -23 -11 -13 0 -27 -3
-31 -7 -4 -4 -19 -9 -34 -11 -15 -2 -29 -7 -32 -11 -3 -4 -12 -10 -20 -13 -9
-3 -1 -8 20 -13 23 -5 35 -4 38 4 2 6 14 11 27 11 13 0 25 4 27 9 4 11 48 -5
48 -17 0 -9 -20 -20 -78 -44 -20 -8 -30 -18 -27 -27 3 -8 0 -11 -8 -8 -7 3
-22 -2 -32 -10 -18 -14 -16 -15 29 -9 27 3 54 10 60 15 6 4 42 11 80 14 38 4
74 11 80 17 8 8 -3 9 -37 6 -51 -5 -64 3 -46 31 7 13 36 23 87 33 42 8 77 21
80 28 2 6 -3 12 -12 12 -9 0 -15 5 -13 12 3 18 -30 21 -36 3z"/>
<path d="M4175 657 c-11 -7 -24 -18 -28 -24 -4 -7 -15 -13 -23 -13 -8 0 -12
-4 -9 -10 7 -12 95 -13 113 -1 10 6 5 12 -17 21 -25 10 -29 15 -20 26 14 17
11 17 -16 1z"/>
</g>
</svg>
